<?xml version="1.0" encoding="UTF-8" standalone="no"?>
<svg
   xmlns:dc="http://purl.org/dc/elements/1.1/"
   xmlns:cc="http://creativecommons.org/ns#"
   xmlns:rdf="http://www.w3.org/1999/02/22-rdf-syntax-ns#"
   xmlns:svg="http://www.w3.org/2000/svg"
   xmlns="http://www.w3.org/2000/svg"
   xmlns:sodipodi="http://sodipodi.sourceforge.net/DTD/sodipodi-0.dtd"
   xmlns:inkscape="http://www.inkscape.org/namespaces/inkscape"
   version="1.1"
   preserveAspectRatio="xMidYMid meet"
   viewBox="0 0 640 640"
   width="640"
   height="640"
   id="svg46"
   sodipodi:docname="logo.svg"
   inkscape:version="1.0.1 (3bc2e813f5, 2020-09-07)">
  <metadata
     id="metadata50">
    <rdf:RDF>
      <cc:Work
         rdf:about="">
        <dc:format>image/svg+xml</dc:format>
        <dc:type
           rdf:resource="http://purl.org/dc/dcmitype/StillImage" />
      </cc:Work>
    </rdf:RDF>
  </metadata>
  <sodipodi:namedview
     pagecolor="#ffffff"
     bordercolor="#666666"
     borderopacity="1"
     objecttolerance="10"
     gridtolerance="10"
     guidetolerance="10"
     inkscape:pageopacity="0"
     inkscape:pageshadow="2"
     inkscape:window-width="2560"
     inkscape:window-height="1376"
     id="namedview48"
     showgrid="false"
     inkscape:zoom="0.60490801"
     inkscape:cx="349.18158"
     inkscape:cy="261.35269"
     inkscape:window-x="0"
     inkscape:window-y="27"
     inkscape:window-maximized="1"
     inkscape:current-layer="svg46"
     inkscape:document-rotation="0" />
  <defs
     id="defs6">
    <path
       d="M164.25 433.88C84.17 297.07 31.28 206.77 57.05 124.68C78.1 57.6 147.1 21.56 214.19 42.62C252.03 54.49 282.82 83.5 297.82 118.67C330.22 98.38 372.07 92.17 409.91 104.04C476.99 125.1 513.03 194.1 491.97 261.18C466.21 343.28 371.22 387.16 227.31 453.67C224.61 454.92 211.11 461.15 186.81 472.37C173.27 449.28 165.75 436.45 164.25 433.88Z"
       id="a2mj0TpU0n" />
    <path
       d="M347.53 581.33L281.05 560.47L364.5 294.57L430.98 315.43L347.53 581.33Z"
       id="b1OnTB3XvV" />
    <path
       d="M111.95 557.76L45.47 536.89L128.93 270.99L195.4 291.86L111.95 557.76Z"
       id="bAngXs1Dt" />
    <path
       d="M250.75 500.6L184.28 479.73L267.73 213.84L334.21 234.7L250.75 500.6Z"
       id="i53r9KkqWr" />
  </defs>
  <g
     id="g146"
     transform="matrix(1.1746822,0,0,1.1746822,-794.87089,225.9098)">
    <g
       id="g6"
       transform="matrix(1.7005374,0,0,1.7005374,714.90245,-173.66635)">
      <g
         id="g4">
        <path
           style="fill:#010002"
           d="M 268.472,166.211 216.442,17.703 c -2.839,-8.115 -10.53,-13.56 -19.124,-13.56 -2.279,0 -4.536,0.386 -6.695,1.137 L 42.109,57.304 C 36.86,59.142 32.846,62.95 30.594,67.6 H 20.271 C 9.094,67.6 0,76.689 0,87.861 v 157.363 c 0,11.172 9.094,20.261 20.271,20.261 h 157.352 c 11.177,0 20.266,-9.089 20.266,-20.261 v -32.808 l 58.165,-20.375 c 5.102,-1.795 9.208,-5.466 11.558,-10.345 2.35,-4.879 2.655,-10.378 0.86,-15.485 z m -91.425,78.436 H 105.279 96.386 20.837 v -21.816 h 156.21 z m 0,-47.02 v 4.368 H 20.837 V 88.438 H 31.552 53.629 177.047 Z M 75.766,67.6 196.97,25.138 l 38.672,110.38 -37.758,12.994 V 87.861 C 197.884,76.689 188.795,67.6 177.618,67.6 Z M 197.884,190.327 V 170.54 l 44.644,-15.365 6.092,17.383 z"
           id="path2" />
      </g>
    </g>
    <g
       id="g8"
       transform="matrix(1.7005374,0,0,1.7005374,714.90245,-173.66635)" />
    <g
       id="g10"
       transform="matrix(1.7005374,0,0,1.7005374,714.90245,-173.66635)" />
    <g
       id="g12"
       transform="matrix(1.7005374,0,0,1.7005374,714.90245,-173.66635)" />
    <g
       id="g14"
       transform="matrix(1.7005374,0,0,1.7005374,714.90245,-173.66635)" />
    <g
       id="g16"
       transform="matrix(1.7005374,0,0,1.7005374,714.90245,-173.66635)" />
    <g
       id="g18"
       transform="matrix(1.7005374,0,0,1.7005374,714.90245,-173.66635)" />
    <g
       id="g20"
       transform="matrix(1.7005374,0,0,1.7005374,714.90245,-173.66635)" />
    <g
       id="g22"
       transform="matrix(1.7005374,0,0,1.7005374,714.90245,-173.66635)" />
    <g
       id="g24"
       transform="matrix(1.7005374,0,0,1.7005374,714.90245,-173.66635)" />
    <g
       id="g26"
       transform="matrix(1.7005374,0,0,1.7005374,714.90245,-173.66635)" />
    <g
       id="g28"
       transform="matrix(1.7005374,0,0,1.7005374,714.90245,-173.66635)" />
    <g
       id="g30"
       transform="matrix(1.7005374,0,0,1.7005374,714.90245,-173.66635)" />
    <g
       id="g32"
       transform="matrix(1.7005374,0,0,1.7005374,714.90245,-173.66635)" />
    <g
       id="g34"
       transform="matrix(1.7005374,0,0,1.7005374,714.90245,-173.66635)" />
    <g
       id="g36"
       transform="matrix(1.7005374,0,0,1.7005374,714.90245,-173.66635)" />
    <g
       id="g51"
       style="opacity:1"
       transform="matrix(1.7005374,0,0,1.7005374,714.90245,-173.66635)">
      <path
         style="color:#000000;font-style:normal;font-variant:normal;font-weight:normal;font-stretch:normal;font-size:medium;line-height:normal;font-family:sans-serif;font-variant-ligatures:normal;font-variant-position:normal;font-variant-caps:normal;font-variant-numeric:normal;font-variant-alternates:normal;font-variant-east-asian:normal;font-feature-settings:normal;font-variation-settings:normal;text-indent:0;text-align:start;text-decoration:none;text-decoration-line:none;text-decoration-style:solid;text-decoration-color:#000000;letter-spacing:normal;word-spacing:normal;text-transform:none;writing-mode:lr-tb;direction:ltr;text-orientation:mixed;dominant-baseline:auto;baseline-shift:baseline;text-anchor:start;white-space:normal;shape-padding:0;shape-margin:0;inline-size:0;clip-rule:nonzero;display:inline;overflow:visible;visibility:visible;isolation:auto;mix-blend-mode:normal;color-interpolation:sRGB;color-interpolation-filters:linearRGB;solid-color:#000000;solid-opacity:1;vector-effect:none;fill:#000000;fill-opacity:1;fill-rule:nonzero;stroke:none;stroke-width:2.8723;stroke-linecap:butt;stroke-linejoin:miter;stroke-miterlimit:4;stroke-dasharray:none;stroke-dashoffset:0;stroke-opacity:1;color-rendering:auto;image-rendering:auto;shape-rendering:auto;text-rendering:auto;enable-background:accumulate;stop-color:#000000;stop-opacity:1"
         d="m 98.883872,190.47064 -1.72338,-1.43615 C 60.107888,158.87539 50.054855,148.2479 50.054855,131.01413 c 0,-14.36148 11.489181,-25.85066 25.850657,-25.85066 11.77641,0 18.38269,6.60628 22.97836,11.77641 4.595668,-5.17013 11.201948,-11.77641 22.978358,-11.77641 14.36147,0 25.85065,11.48918 25.85065,25.85066 0,17.23377 -10.05303,27.86126 -47.10563,58.02036 z m -22.97836,-79.56258 c -11.201952,0 -20.106067,8.90412 -20.106067,20.10607 0,14.64871 9.191345,24.41451 43.084427,51.98854 33.893068,-27.57403 43.084418,-37.33983 43.084418,-51.98854 0,-11.20195 -8.90412,-20.10607 -20.10606,-20.10607 -10.05303,0 -15.51039,6.03182 -19.81884,10.91472 l -3.159518,3.73399 -3.15952,-3.73399 c -4.30845,-4.8829 -9.76581,-10.91472 -19.81884,-10.91472 z"
         id="path53" />
      <path
         style="color:#000000;font-style:normal;font-variant:normal;font-weight:normal;font-stretch:normal;font-size:medium;line-height:normal;font-family:sans-serif;font-variant-ligatures:normal;font-variant-position:normal;font-variant-caps:normal;font-variant-numeric:normal;font-variant-alternates:normal;font-variant-east-asian:normal;font-feature-settings:normal;font-variation-settings:normal;text-indent:0;text-align:start;text-decoration:none;text-decoration-line:none;text-decoration-style:solid;text-decoration-color:#000000;letter-spacing:normal;word-spacing:normal;text-transform:none;writing-mode:lr-tb;direction:ltr;text-orientation:mixed;dominant-baseline:auto;baseline-shift:baseline;text-anchor:start;white-space:normal;shape-padding:0;shape-margin:0;inline-size:0;clip-rule:nonzero;display:inline;overflow:visible;visibility:visible;isolation:auto;mix-blend-mode:normal;color-interpolation:sRGB;color-interpolation-filters:linearRGB;solid-color:#000000;solid-opacity:1;vector-effect:none;fill:#009688;fill-opacity:1;fill-rule:nonzero;stroke:#009688;stroke-width:10;stroke-linecap:butt;stroke-linejoin:miter;stroke-miterlimit:4;stroke-dasharray:none;stroke-dashoffset:0;stroke-opacity:1;color-rendering:auto;image-rendering:auto;shape-rendering:auto;text-rendering:auto;enable-background:accumulate;stop-color:#000000;stop-opacity:1"
         d="m 75.90625,103.72656 c -15.127423,0 -27.287109,12.15969 -27.287109,27.28711 0,8.89614 2.706839,16.33464 9.990234,25.08203 7.283395,8.7474 19.103494,18.96119 37.644531,34.05274 l 2.63086,2.1914 0.917968,-0.76562 1.710936,-1.42578 c 18.54104,-15.09155 30.36114,-25.30534 37.64453,-34.05274 7.2834,-8.74739 9.99024,-16.18589 9.99024,-25.08203 0,-15.12742 -12.15969,-27.28711 -27.28711,-27.28711 -11.48514,0 -18.32628,6.08596 -22.978518,11.15039 -4.652231,-5.06424 -11.492155,-11.15039 -22.976562,-11.15039 z m 0,2.87305 c 11.239313,0 17.359075,6.18155 21.904297,11.29492 l 1.074219,1.20703 1.072265,-1.20703 c 4.545219,-5.11337 10.664979,-11.29492 21.904299,-11.29492 13.59552,0 24.41601,10.81853 24.41601,24.41406 0,8.33764 -2.3199,14.82957 -9.32617,23.24414 -7.00627,8.41457 -18.73843,18.59456 -37.249998,33.66211 l -0.0078,0.006 -0.810547,0.67578 -0.808593,-0.67578 -0.0078,-0.006 c -18.511567,-15.06755 -30.243727,-25.24754 -37.25,-33.66211 -7.006272,-8.41457 -9.326172,-14.9065 -9.326172,-23.24414 0,-13.59553 10.820487,-24.41406 24.416016,-24.41406 z m 0,2.87305 c -11.962989,0 -21.542969,9.57803 -21.542969,21.54101 0,7.62473 2.50347,14.19866 9.171875,22.07617 6.668406,7.87752 17.479781,17.22806 34.441406,31.02735 l 0.908204,0.73633 0.90625,-0.73633 c 16.961614,-13.79929 27.773004,-23.14984 34.441404,-31.02735 6.66841,-7.87751 9.17188,-14.45144 9.17188,-22.07617 0,-11.96299 -9.57999,-21.54101 -21.54297,-21.54101 -10.62749,0 -16.57622,6.50631 -20.89453,11.40039 l -0.01,0.01 -2.074218,2.44922 -2.072265,-2.44922 -0.0098,-0.01 C 92.482473,115.97897 86.53374,109.47266 75.90625,109.47266 Z m 0,2.87109 c 9.47857,0 14.443596,5.55796 18.742188,10.42969 l 4.236328,5.00586 4.236324,-5.00586 c 4.2986,-4.87173 9.26167,-10.42969 18.74024,-10.42969 10.4409,0 18.66992,8.22901 18.66992,18.66992 0,7.02399 -2.09165,12.65963 -8.49219,20.22071 -6.26223,7.39769 -16.85201,16.60068 -33.156248,29.89062 -16.303465,-13.28933 -26.892238,-22.49314 -33.154296,-29.89062 -6.400538,-7.56108 -8.492188,-13.19672 -8.492188,-20.22071 0,-10.44091 8.229007,-18.66992 18.669922,-18.66992 z"
         id="path55" />
    </g>
  </g>
</svg>
