<?xml version="1.0" encoding="UTF-8" standalone="no"?>
<svg
   xmlns:dc="http://purl.org/dc/elements/1.1/"
   xmlns:cc="http://creativecommons.org/ns#"
   xmlns:rdf="http://www.w3.org/1999/02/22-rdf-syntax-ns#"
   xmlns:svg="http://www.w3.org/2000/svg"
   xmlns="http://www.w3.org/2000/svg"
   xmlns:sodipodi="http://sodipodi.sourceforge.net/DTD/sodipodi-0.dtd"
   xmlns:inkscape="http://www.inkscape.org/namespaces/inkscape"
   version="1.1"
   preserveAspectRatio="xMidYMid meet"
   viewBox="0 0 640 640"
   width="640"
   height="640"
   id="svg46"
   sodipodi:docname="logo.svg"
   inkscape:version="0.92.4 (unknown)">
  <metadata
     id="metadata50">
    <rdf:RDF>
      <cc:Work
         rdf:about="">
        <dc:format>image/svg+xml</dc:format>
        <dc:type
           rdf:resource="http://purl.org/dc/dcmitype/StillImage" />
      </cc:Work>
    </rdf:RDF>
  </metadata>
  <sodipodi:namedview
     pagecolor="#ffffff"
     bordercolor="#666666"
     borderopacity="1"
     objecttolerance="10"
     gridtolerance="10"
     guidetolerance="10"
     inkscape:pageopacity="0"
     inkscape:pageshadow="2"
     inkscape:window-width="1920"
     inkscape:window-height="1016"
     id="namedview48"
     showgrid="false"
     inkscape:zoom="0.7375"
     inkscape:cx="290.43528"
     inkscape:cy="413.21762"
     inkscape:window-x="0"
     inkscape:window-y="27"
     inkscape:window-maximized="1"
     inkscape:current-layer="svg46" />
  <defs
     id="defs6">
    <path
       d="M164.25 433.88C84.17 297.07 31.28 206.77 57.05 124.68C78.1 57.6 147.1 21.56 214.19 42.62C252.03 54.49 282.82 83.5 297.82 118.67C330.22 98.38 372.07 92.17 409.91 104.04C476.99 125.1 513.03 194.1 491.97 261.18C466.21 343.28 371.22 387.16 227.31 453.67C224.61 454.92 211.11 461.15 186.81 472.37C173.27 449.28 165.75 436.45 164.25 433.88Z"
       id="a2mj0TpU0n" />
    <path
       d="M347.53 581.33L281.05 560.47L364.5 294.57L430.98 315.43L347.53 581.33Z"
       id="b1OnTB3XvV" />
    <path
       d="M111.95 557.76L45.47 536.89L128.93 270.99L195.4 291.86L111.95 557.76Z"
       id="bAngXs1Dt" />
    <path
       d="M250.75 500.6L184.28 479.73L267.73 213.84L334.21 234.7L250.75 500.6Z"
       id="i53r9KkqWr" />
  </defs>
  <path
     style="fill:#009688;fill-opacity:1;stroke-width:0.93950379"
     d="m 230.97278,118.02183 c -50.42156,-0.43029 -96.23014,31.52309 -112.29862,82.72843 -17.95602,57.1988 4.79165,118.68776 48.40704,199.05076 l 21.50243,-68.50542 62.45193,19.60496 -39.70327,126.50634 c 2.7412,4.68911 5.2424,9.02683 8.05762,13.83639 1.40924,2.41453 8.47627,14.46968 21.19718,36.16291 l 78.39944,-249.80292 62.45704,19.59475 -60.57993,193.01263 c 19.22705,-9.00562 37.46992,-17.73647 54.35357,-26.23828 l 34.68766,-110.52329 62.45706,19.59478 -13.08857,41.70757 c 34.1565,-24.88614 57.37295,-51.8524 68.01198,-85.7602 19.78598,-63.02192 -14.0752,-127.84635 -77.09719,-147.6323 -35.55087,-11.15191 -74.86936,-5.31771 -105.30925,13.74485 -14.09254,-33.04236 -43.0164,-60.29884 -78.56728,-71.45075 -11.81843,-3.70987 -23.70301,-5.5319 -35.33884,-5.63121 z"
     id="path1567"
     inkscape:connector-curvature="0" />
</svg>
